<?xml version="1.0" encoding="UTF-8"?>
<svg width="250" height="250" version="1.1" viewBox="0 0 250 250" xml:space="preserve" xmlns="http://www.w3.org/2000/svg"><defs><clipPath><path d="m433.42 267.42v-122.59c0.094 0 0.186-7e-3 0.28-7e-3 65.752 0 119.06 53.303 119.06 119.06 0 1.188-0.055 2.363-0.089 3.543z"/></clipPath><clipPath><path d="m433.42 358.84v-91.418h118.91v6.081c-2.785 34.821-20.541 65.414-46.832 85.337z"/></clipPath><clipPath><path d="m314.74 267.42c-0.035-1.18-0.09-2.355-0.09-3.543 0-65.574 53.012-118.76 118.52-119.05h0.256v122.59z"/></clipPath><clipPath><path d="m314.74 267.42h118.69v115.5c-64.435-0.149-116.81-51.488-118.69-115.5"/></clipPath><clipPath><path d="m399.77 393.35 25.914-137.32 42.017 134.82c-1.198 0.484-2.385 0.986-3.607 1.426-11.001 3.965-22.239 5.853-33.416 5.853-10.435 0-20.817-1.645-30.908-4.783"/></clipPath><clipPath id="clipPath60"><path d="m309.75 563.63h21.302v21.286h-21.302z"/></clipPath><clipPath id="clipPath70"><path d="m310 563.88h20.797v20.786h-20.797z"/></clipPath><clipPath id="clipPath84"><path d="m32768 32768h-65536v-65536h65536z"/></clipPath></defs><g transform="matrix(1.3333 0 0 -1.3333 0 816.38)" fill="#007bbf"><g transform="matrix(8.0137 0 0 8.0137 -657.53 -3636.8)"/><g transform="matrix(8.0137 0 0 8.0137 -2473.8 -4083.5)"><g fill="#007bbf"><g clip-path="url(#clipPath60)" fill="#007bbf"><g fill="#007bbf"><g fill="#007bbf"><g clip-path="url(#clipPath70)" fill="#007bbf"><g transform="translate(320.17 563.89)" fill="#007bbf"><path d="m0 0c0.075-2e-3 0.148-0.011 0.224-0.011h3e-3c0.076 0 0.146 9e-3 0.221 0.011v11.35h-0.448zm10.626 10.376c-2e-3 -4.8-3.265-8.828-7.693-10.019v10.993h0.447v-10.402c3.949 1.323 6.804 5.045 6.806 9.428 2e-3 2.659-1.033 5.159-2.913 7.04s-4.381 2.918-7.041 2.919h-3e-3c-5.49 0-9.958-4.464-9.96-9.95-1e-3 -2.659 1.033-5.158 2.913-7.039 1.112-1.111 2.443-1.919 3.893-2.401v10.405h0.442v-10.992c-4.429 1.194-7.69 5.225-7.688 10.027 3e-3 5.739 4.657 10.389 10.4 10.39h3e-3c5.743-3e-3 10.397-4.659 10.394-10.399" fill="#007bbf"/></g></g></g></g></g></g></g><g transform="matrix(8.0137 0 0 8.0137 -657.53 -3636.8)"><g fill="#007bbf"><g clip-path="url(#clipPath84)" fill="#007bbf"/></g></g></g></svg>
